<svg xmlns="http://www.w3.org/2000/svg" viewBox="0 0 428.7 426.88"><defs><style>.cls-1{isolation:isolate;}.cls-2{fill:#a93147;}.cls-3{fill:#242136;}.cls-4{fill:#492455;}.cls-4,.cls-7{opacity:0.2;mix-blend-mode:multiply;}.cls-5{fill:#d84548;}.cls-6{fill:#f9de59;}.cls-7{fill:#d52455;}.cls-8{fill:#009351;}.cls-9{fill:#00b760;}.cls-10{fill:#9cd8ff;}.cls-11{fill:#fff;}.cls-12{fill:#da6ce0;}.cls-13{fill:#942641;}.cls-14{fill:#ff425d;}</style></defs><title>Asset 1</title><g class="cls-1"><g id="Layer_2" data-name="Layer 2"><g id="OBJECTS"><path class="cls-2" d="M406,356l-.65,3.59-6.33,35s-4,.14-11.13.35h0c-47.45,1.44-234.43,6.36-324-2.11-19.32-1.83-34.1-4.27-42-7.51,0,0-5.22-15.38-3.89-26.31a20.06,20.06,0,0,1,.45-2.54,10.7,10.7,0,0,1,4.09-6.64c7.86-5.3,14.32-5.49,17-5.29h.08a10.58,10.58,0,0,1,1.17.16h0s.06-27.13,7-31,48-38.24,153.17-40,164.78,55.4,164.78,55.4,14.26-1,20.25.36S406,356,406,356Z"/><path class="cls-3" d="M221.22,398.74c-95.5,0-142.15-3.45-157.47-4.9-20.55-1.95-34.77-4.5-42.27-7.58a1,1,0,0,1-.57-.6C20.7,385,15.64,369.93,17,358.9a20.5,20.5,0,0,1,.47-2.66A11.6,11.6,0,0,1,22,349c7.88-5.32,14.41-5.7,17.6-5.46h.22c.09-5.72.87-27,7.55-30.68.65-.36,1.62-1,3-1.89,6.55-4.33,20.18-13.34,44.39-21.66,30-10.32,65.78-15.89,106.27-16.57,54.55-.93,96.63,14.27,122.32,27.15s40.5,26.07,42.85,28.23c2.49-.16,14.56-.85,20.1.41,6.24,1.41,19.15,24.33,20.61,26.94a1,1,0,0,1,.11.66l-7,38.61a1,1,0,0,1-.95.82s-4,.14-11.14.35C320.59,398,265.62,398.74,221.22,398.74ZM22.67,384.58C30.1,387.51,44,390,63.94,391.85,86.35,394,176,400.39,387.8,394c5.28-.15,8.83-.27,10.33-.32l6.77-37.46c-5.55-9.93-15.09-24.74-19.12-25.65-5.78-1.31-19.82-.35-20-.34a1,1,0,0,1-.76-.27c-.15-.15-15.15-14.39-42.77-28.23-25.47-12.76-67.18-27.82-121.3-26.9-40.29.67-75.83,6.21-105.66,16.46-24,8.24-37.46,17.15-43.94,21.43-1.39.92-2.39,1.59-3.11,2-5.3,2.91-6.5,22.7-6.52,30.09a1,1,0,0,1-.38.78,1,1,0,0,1-.86.19,8,8,0,0,0-1.06-.15h-.11c-2.31-.17-8.63,0-16.28,5.12a9.79,9.79,0,0,0-3.68,6.05,20,20,0,0,0-.43,2.42C17.8,368.72,21.85,382,22.67,384.58Z"/><path class="cls-4" d="M66.67,344l-2.83,48.81c-19.32-1.83-34.1-4.27-42-7.51,0,0-5.22-15.38-3.89-26.31a20.06,20.06,0,0,1,.45-2.54Z"/><path class="cls-4" d="M406,356l-.65,3.59-6.33,35s-4,.14-11.13.35h0c-11.75-6.29-22.12-12.1-22.12-12.1l-8-33.73Z"/><path class="cls-4" d="M92.64,371.19s21.28-72.53,101.6-81.75,159,89.94,159,89.94l-173.1,18.3"/><path class="cls-4" d="M165,364.85s15.27-65.31,46.77-70.4,51.64,88.62,51.64,88.62l-67.72,9.56"/><path class="cls-5" d="M66.67,344s-3.9,6.82-20.47,10.46C38.09,356.27,27.09,357.86,18,359c.47-3.95,1.8-7.32,4.54-9.18,7.86-5.3,14.32-5.49,17-5.29h.08l1.17.16h0Z"/><path class="cls-3" d="M18,360a1,1,0,0,1-.7-.29,1,1,0,0,1-.29-.82c.56-4.71,2.23-8,5-9.89,7.88-5.32,14.41-5.7,17.6-5.46h.12l1.17.16,25.8-.7a1.09,1.09,0,0,1,.89.49,1,1,0,0,1,0,1c-.17.3-4.31,7.25-21.12,10.94-6.78,1.49-16.31,3-28.32,4.55Zm20.22-14.51c-2.95,0-8.54.73-15.12,5.16-2,1.36-3.31,3.77-3.92,7.2,11.34-1.47,20.36-2.93,26.84-4.35,11.1-2.44,16.33-6.29,18.5-8.43l-23.7.64a1.23,1.23,0,0,1-.27,0l-1.1-.15C39.08,345.53,38.67,345.51,38.19,345.51Z"/><path class="cls-5" d="M406,356l-.65,3.59c-10.49,2-17.26-3.17-17.26-3.17l-30.31-7.29s19.19-7.93,15.18-9.61-7.16-10.33-7.16-10.33,14.26-1,20.25.36S406,356,406,356Z"/><path class="cls-3" d="M400.48,361.05a22.94,22.94,0,0,1-12.86-3.71l-30.12-7.25a1,1,0,0,1-.15-1.89c6.47-2.67,13.68-6.29,14.95-7.86-4.19-2.06-7.16-9.91-7.49-10.81a1,1,0,0,1,.87-1.34c.59,0,14.48-1,20.54.38,6.24,1.41,19.15,24.33,20.61,26.94a1,1,0,0,1,.11.66l-.65,3.59a1,1,0,0,1-.8.81A27.48,27.48,0,0,1,400.48,361.05Zm-39.56-12.19,27.36,6.58a1.27,1.27,0,0,1,.37.18,22,22,0,0,0,15.79,3.1l.46-2.55c-5.55-9.93-15.09-24.74-19.12-25.65-4.71-1.07-14.9-.63-18.59-.42,1.18,2.78,3.6,7.45,6.11,8.49a1.67,1.67,0,0,1,1.16,1.56C374.46,342.43,367.63,346,360.92,348.86Z"/><ellipse class="cls-6" cx="214.35" cy="392.64" rx="213.35" ry="33.24"/><path class="cls-3" d="M214.35,426.88C109,426.88,0,414.07,0,392.64c0-12.09,34.44-20,63.34-24.49,40.34-6.29,94-9.75,151-9.75,105.37,0,214.35,12.81,214.35,34.24,0,12.08-34.44,20-63.33,24.49C325,423.42,271.39,426.88,214.35,426.88Zm0-66.48c-56.94,0-110.46,3.45-150.71,9.72C8,378.79,2,388.76,2,392.64s6,13.85,61.64,22.51c40.25,6.27,93.77,9.73,150.71,9.73s110.46-3.46,150.71-9.73c55.64-8.66,61.64-18.63,61.64-22.51s-6-13.85-61.64-22.52C324.81,363.85,271.29,360.4,214.35,360.4Z"/><ellipse class="cls-7" cx="216.5" cy="386.14" rx="69.38" ry="10.9"/><path class="cls-7" d="M66.67,394.6c0,3.58-8.54,6.48-19.08,6.48s-19.09-2.9-19.09-6.48,8.55-6.48,19.09-6.48S66.67,391,66.67,394.6Z"/><ellipse class="cls-7" cx="344.45" cy="379.38" rx="8.76" ry="3.29"/><path class="cls-7" d="M316.37,408.39c0,3.05-6.61,5.53-14.76,5.53s-14.75-2.48-14.75-5.53,6.6-5.53,14.75-5.53S316.37,405.33,316.37,408.39Z"/><path class="cls-8" d="M130.79,399.48H100.14s-9.27-17.91-3.87-20.55,12.06,7.89,12.06,7.89,1.29-15.05,7.39-15.61,5.61,17.1,5.61,17.1,4.92-10.72,11-11.27S130.79,399.48,130.79,399.48Z"/><path class="cls-3" d="M130.79,400.48H100.14a1,1,0,0,1-.89-.54c-.74-1.42-7.16-14.1-5.34-19.6A3.76,3.76,0,0,1,95.83,378c4.49-2.19,9.39,3,11.81,6.11.7-4.6,2.72-13.44,8-13.93a3.87,3.87,0,0,1,3.07,1.09c2.67,2.5,3.4,8.93,3.59,13.17,2.07-3.36,5.69-8,10-8.42a2.68,2.68,0,0,1,2.44,1c3.09,3.91-1.94,19.63-3,22.74A1,1,0,0,1,130.79,400.48Zm-30-2h29.31c2.23-6.88,4.89-17.88,3.08-20.18a.7.7,0,0,0-.69-.26c-4.53.41-8.9,7.85-10.21,10.69a1,1,0,0,1-1.91-.45c.1-3.44-.25-12.95-3-15.52a1.87,1.87,0,0,0-1.53-.56c-4.32.4-6.15,10.75-6.49,14.71a1,1,0,0,1-1.84.44c-1.72-2.71-7-9.36-10.77-7.52a1.8,1.8,0,0,0-.9,1.14C94.55,384.77,98.72,394.42,100.75,398.48Z"/><path class="cls-8" d="M282.72,373.13s-2.4-11.86.86-16.72,8.62,5.81,8.62,5.81,6.64-14.67,13.08-13S311,363,311,363s6.84-7.35,9.48-4,.54,16.22.54,16.22S295.49,377.41,282.72,373.13Z"/><path class="cls-3" d="M306.46,376.8c-8,0-17.57-.55-24-2.72a1,1,0,0,1-.67-.75c-.1-.5-2.44-12.32,1-17.48a3.31,3.31,0,0,1,3-1.71c2.57.16,5.05,3.65,6.4,5.92a47.68,47.68,0,0,1,3.36-5.54c3.54-5,6.91-7,10-6.23,5.29,1.4,6.31,8.53,6.48,12.35,1.76-1.55,4.48-3.59,6.8-3.5a3.25,3.25,0,0,1,2.47,1.27c2.83,3.61,1,15.63.74,17a1,1,0,0,1-.9.83C320.61,376.28,314.28,376.8,306.46,376.8Zm-22.86-4.44c11.33,3.53,32.28,2.25,36.58,1.94.72-4.88,1.17-12.57-.47-14.66a1.2,1.2,0,0,0-1-.5c-1.93-.09-5.31,2.74-7,4.54a1,1,0,0,1-1.12.24,1,1,0,0,1-.61-1c0-.11.58-11.24-5-12.71-4.59-1.23-10.16,8.54-11.91,12.4a1,1,0,0,1-.89.59,1,1,0,0,1-.91-.55c-1.34-2.65-4-6.43-5.69-6.53-.17,0-.63,0-1.21.82C281.81,360.85,283.18,370,283.6,372.36Z"/><path class="cls-9" d="M177.49,411.27H155.23s-1.94-12.1,2.37-14.37,8.58,5.06,8.58,5.06,3.4-10.57,8.26-11.06S177.49,411.27,177.49,411.27Z"/><path class="cls-3" d="M177.49,412.27H155.23a1,1,0,0,1-1-.84c-.21-1.31-1.92-12.88,2.88-15.41,3.65-1.93,7.06,1.53,8.77,3.77,1.29-3.26,4.27-9.46,8.44-9.88a2.58,2.58,0,0,1,2.12.78c3.42,3.38,2.18,18.91,2,20.67A1,1,0,0,1,177.49,412.27Zm-21.39-2h20.47c.47-6.36.46-16.2-1.52-18.16a.59.59,0,0,0-.51-.21c-3.45.34-6.52,7.6-7.41,10.37a1,1,0,0,1-.84.69,1,1,0,0,1-1-.49c0-.07-3.9-6.46-7.26-4.68C155.56,399.11,155.51,405.81,156.1,410.27Z"/><path class="cls-10" d="M361,82.39H289s7.27-11.53,20.63-9.21c2.46-9.76,7.41-12.94,12-13.54a18.82,18.82,0,0,1,10.46,2.2s8-14.85,19.22-11.39c13,4,5.87,22.26,5.87,22.26s5.2-2.95,7.92,2.25C367.46,79.34,362.31,82.39,361,82.39Z"/><path class="cls-3" d="M361,83.39H289a1,1,0,0,1-.88-.51,1,1,0,0,1,0-1c.08-.12,7.46-11.55,20.74-9.81,2.81-10.06,8.4-12.85,12.65-13.4a19.21,19.21,0,0,1,10.2,1.87,33.34,33.34,0,0,1,5.08-6.39c4.73-4.56,9.85-6.16,14.83-4.63a11.16,11.16,0,0,1,7.13,5.92c2.56,5.31,1.05,12.27,0,15.65a6.74,6.74,0,0,1,3.39.05,6.34,6.34,0,0,1,3.82,3.38,5.32,5.32,0,0,1-.12,5.46C364.65,82.09,362.17,83.39,361,83.39Zm-69.92-2H361a5.74,5.74,0,0,0,3.3-2.52,3.32,3.32,0,0,0,0-3.44A4.43,4.43,0,0,0,361.68,73a5.81,5.81,0,0,0-3.94.54,1,1,0,0,1-1.15-.12,1,1,0,0,1-.27-1.12c0-.09,3.75-9.72.69-16.06a9.3,9.3,0,0,0-5.92-4.87c-10.34-3.18-18,10.76-18,10.9a1,1,0,0,1-.61.49,1,1,0,0,1-.77-.09,17.84,17.84,0,0,0-9.83-2.08c-5.47.71-9.24,5-11.2,12.79a1,1,0,0,1-1.14.74C299.87,72.49,293.52,78.46,291,81.39Z"/><path class="cls-4" d="M326.07,82.39H289s7.27-11.53,20.63-9.21c2.46-9.76,7.41-12.94,12-13.54C318.39,66.94,317.38,75.77,326.07,82.39Z"/><path class="cls-10" d="M162.36,44.86H35.2s9-15.42,34.67-12.84c-.94-15,7-24.52,17-28.64,17.38-7.18,40.92,2.05,34.39,27.35,19.26-12.85,24.4,3.85,24.4,3.85S161.08,28.16,162.36,44.86Z"/><path class="cls-3" d="M162.36,45.86H35.2a1,1,0,0,1-.87-1.51c.38-.64,9.34-15.48,34.49-13.43C68.4,17.81,74.94,7.23,86.49,2.46,96.89-1.84,108.85-.41,116.25,6c6,5.25,8.31,13.21,6.51,22.58,6-3.56,11.31-4.58,15.7-3a13.91,13.91,0,0,1,7.78,7.73c2.17-.7,7.51-2,11.73.6,3.17,1.94,5,5.6,5.39,10.87a1,1,0,0,1-.27.76A1,1,0,0,1,162.36,45.86Zm-125.2-2H161.25c-.48-4-1.94-6.78-4.31-8.24-4.45-2.73-10.83-.14-10.9-.11a1,1,0,0,1-.81,0,1.06,1.06,0,0,1-.53-.61c0-.06-1.8-5.61-6.93-7.42-4.25-1.51-9.62-.12-16,4.1a1,1,0,0,1-1.13,0,1,1,0,0,1-.39-1.07c3.19-12.35-1.15-19.29-5.35-22.95C108.2,1.68,96.82.35,87.25,4.31,76,8.94,70.06,19,70.87,32a1,1,0,0,1-1.1,1c-12.91-1.29-21.39,2.14-26.23,5.24A27.32,27.32,0,0,0,37.16,43.86Z"/><path class="cls-4" d="M94,44.86H35.2s9-15.42,34.67-12.84c-.94-15,7-24.52,17-28.64C85.79,15.72,86.65,31.17,94,44.86Z"/><path class="cls-8" d="M236.24,386.12c-10.32,4.72-25.82,7.16-35.48-.2-.18-.13.66-26.92,1.27-52.74.49-20.63.83-40.64.38-46l19.47-6.07c3.61,13.2,6.64,33.58,9.08,53.9C233.25,354.15,235,373.21,236.24,386.12Z"/><path class="cls-3" d="M216.59,391.57c-6.09,0-11.92-1.41-16.43-4.85-.52-.38-.52-.38.11-24,.24-8.85.52-19.29.76-29.57.63-26.49.75-41.5.38-45.9a1,1,0,0,1,.7-1l19.47-6.08a1,1,0,0,1,1.26.69C226,292.28,229,310,232,334.88c2.08,17.39,3.73,34.74,4.93,47.41l.36,3.73a1,1,0,0,1-.58,1A50,50,0,0,1,216.59,391.57Zm-14.85-6.17c8.83,6.38,23,4.7,33.44.1l-.29-3c-1.2-12.65-2.85-30-4.92-47.35-2.9-24.11-5.78-41.39-8.79-52.76l-17.72,5.53c.31,5.31.16,20.17-.43,45.31-.24,10.29-.52,20.73-.76,29.58C202,373.73,201.72,383.31,201.74,385.4Z"/><path class="cls-4" d="M231,335a135.16,135.16,0,0,1-17.12-20.47A63.29,63.29,0,0,1,202,333.18c.49-20.63.83-40.64.38-46l19.47-6.07C225.49,294.3,228.52,314.68,231,335Z"/><path class="cls-9" d="M381.09,178.23a103.72,103.72,0,0,1-19.88,27.63h0a121.94,121.94,0,0,1-27.36,20.51L353.18,228c-14.28,13.18-33.55,18.35-52.39,20.62-8.12,1-16.33,1.91-24.44,3.32-1,.16-2,.35-3,.53l29.74,12.31c7.15,3,14.62,6.17,19.44,12.24a21.12,21.12,0,0,0-9.78,4.48c7.78,1.18,15.53,3.26,22.31,7.24s12.55,10.05,15.15,17.47a22.94,22.94,0,0,0-13.48.08c3.08-1,10.31,14.54,11.12,16.76.37,1,2,8.51,2.92,13.71.51,2.83.84,5,.68,5-31.39,7.34-56.93.77-76.94-10.93a102.47,102.47,0,0,1-1.1,13.2c.33-2.14-28.33-33.39-32.51-35.06-.52-.21,5.87,13.07,2.84,16.18-17.21-9-26-18-29.6-36-4,9.29-9.35,27.29-16.61,34.12-13.71,12.9-22.78,19.12-36.64,26.69-.29-8.13,3.75-20.82.9-28.13-6.79,1.74-14.24,6.95-21.42,9.38L88.32,348.91,102,334.29a248,248,0,0,0-32,6.59c.42-3.14,1-6.27,1.72-9.35a97.79,97.79,0,0,1,29.82-50.26q-9.36,1.77-18.67,3.87a95.09,95.09,0,0,1,55.06-33.37c-.44-.17-.89-.33-1.35-.47-8.91-2.9-18.83-.88-28.12-2.62-12.84-2.41-22.66-11.92-33-18.87S56.22,214.9,52.5,202.7l15.89,6.37a140,140,0,0,1-30.37-83c13.36,21.58,38.67,32.05,62.34,41.21L91,159.62A92.66,92.66,0,0,1,138,180a18.54,18.54,0,0,0-4.75-12.18c2.8,3.08,9.76,5.1,13.38,7.58,5.11,3.52,9.5,7.67,14.06,11.84,5.37,4.91,11.78,7.32,17.8,10.89a44.46,44.46,0,0,1,4,2.66l1,.77a6.16,6.16,0,0,1-1.31-1.73h0c-1.56-2.77-3.12-7.58-4.64-9.57-3.33-4.33-6.12-6.83-8.49-12.25a117.71,117.71,0,0,1-9.15-34.34,43.28,43.28,0,0,1,11.8,13,88.46,88.46,0,0,1-2.57-50.79,86.4,86.4,0,0,1,13.27-29.46,62.32,62.32,0,0,0,2.83,22.32c-2.77-8.69,10-29.61,14.28-36.83C206,50.9,214.19,41.27,220,29.89c-2.08,11.94,5,23.27,9.93,34.34,9,20.22,10.46,44,9.9,65.92a83.24,83.24,0,0,0,9.66-19.73c2.51,13.28,1.32,28.44-2.24,41.3,2.34-2,13.31-9.73,13.58-12.6-2,21.25-19.74,34-16.75,57,5.35-6,9.65-10.82,13.53-17.68,3.46-6.1,8.3-11.62,14.61-14.69a29.2,29.2,0,0,0-3,16.58c-1-8.56,19.93-25.34,25.76-29.85,11.11-8.63,24.22-14.73,38.32-16.08a52.43,52.43,0,0,0-15,19.43,97.46,97.46,0,0,1,36.87-22.42c8.22-2.74,17.4-4.75,23-11.4q-4.49,6-8.95,11.92a26.57,26.57,0,0,0,16.51-20.26C393.47,133.16,391.1,157.71,381.09,178.23Z"/><path class="cls-3" d="M160.91,351a1.05,1.05,0,0,1-.49-.13,1,1,0,0,1-.51-.84,67.61,67.61,0,0,1,.92-10.74c.8-5.86,1.62-11.91.34-16.21a66.75,66.75,0,0,0-10.4,4.58,80.7,80.7,0,0,1-10.06,4.54L88.64,349.86a1,1,0,0,1-1.16-.41,1,1,0,0,1,.11-1.22l11.74-12.54a246.69,246.69,0,0,0-29.1,6.15,1,1,0,0,1-.92-.21,1,1,0,0,1-.33-.88,95.86,95.86,0,0,1,1.73-9.45,99.13,99.13,0,0,1,27.55-48.38c-5.08,1-10.18,2.07-15.2,3.2a1,1,0,0,1-1-1.61A96.79,96.79,0,0,1,134,251.62c-4.22-1-8.63-1-13.26-1.09a73.42,73.42,0,0,1-12.45-.86c-10-1.88-18.12-7.9-26-13.72-2.43-1.8-4.93-3.65-7.41-5.31C65.6,224.43,55.6,216.28,51.55,203a1,1,0,0,1,.28-1,1,1,0,0,1,1-.19l12.46,5A139.22,139.22,0,0,1,49,178.9a141.46,141.46,0,0,1-12-52.76,1,1,0,0,1,1.85-.56c11.75,19,32.14,29,56,38.5l-4.51-3.69a1,1,0,0,1,.76-1.76,94.38,94.38,0,0,1,45.76,19.1,17.51,17.51,0,0,0-4.33-9.29A1,1,0,1,1,134,167.1h0c1.54,1.69,4.59,3.1,7.55,4.47a39.63,39.63,0,0,1,5.64,2.95,119,119,0,0,1,12.92,10.76l1.26,1.16c3.6,3.3,7.63,5.41,11.9,7.64,1.89,1,3.84,2,5.73,3.13l1.21.73c-.31-.67-.61-1.38-.91-2.08a27.83,27.83,0,0,0-2.52-5.06c-.84-1.1-1.65-2.08-2.44-3a36.93,36.93,0,0,1-6.17-9.43,118.28,118.28,0,0,1-9.22-34.63,1,1,0,0,1,.49-1,1,1,0,0,1,1.09.06,43.89,43.89,0,0,1,8.26,7.8,90.53,90.53,0,0,1-.59-45.06,86.71,86.71,0,0,1,13.43-29.79,1,1,0,0,1,1.14-.37,1,1,0,0,1,.67,1,60.59,60.59,0,0,0,1,15c2.13-9.66,9.86-22.67,13.67-29.09l.58-1c2.72-4.6,5.79-9,8.75-13.31a159.56,159.56,0,0,0,11.62-18.56,1,1,0,0,1,1.21-.5,1,1,0,0,1,.67,1.12c-1.65,9.53,2.8,18.84,7.11,27.86.92,1.93,1.88,3.94,2.76,5.9,9.26,20.79,10.33,45.12,10,62.78a82.35,82.35,0,0,0,7.65-16.49,1,1,0,0,1,1-.68,1,1,0,0,1,.92.81c2.23,11.81,1.67,25.8-1.51,38.83l.34-.26c3.09-2.39,10.33-8,10.52-9.78h0a1,1,0,1,1,2,.19v0c-.9,9.45-4.85,17.29-8.67,24.87-4.71,9.32-9.16,18.15-8.31,29.7,4.45-5,8.36-9.57,11.9-15.82,4-7,9.18-12.24,15-15.1a1,1,0,0,1,1.32,1.35,28.28,28.28,0,0,0-2.89,9.48c5-8.54,17.78-19.08,24.12-24,12.07-9.37,25.5-15,38.85-16.29a1,1,0,0,1,1,.62,1,1,0,0,1-.3,1.15,51.71,51.71,0,0,0-12.18,14.17,98.76,98.76,0,0,1,33.14-18.88c1.25-.42,2.53-.82,3.82-1.23,7-2.18,14.16-4.45,18.68-9.86a1,1,0,0,1,1.57,1.24q-3.27,4.33-6.52,8.68a25.48,25.48,0,0,0,12.29-17.77,1,1,0,0,1,1.93-.19c7.68,21,6,45.58-4.59,67.31a104.38,104.38,0,0,1-20.07,27.89,122.17,122.17,0,0,1-24.78,19.09L353.27,227a1,1,0,0,1,.59,1.73c-12.32,11.37-29.15,18-52.95,20.89l-2.61.31c-7,.84-14.3,1.71-21.39,2.93l26.58,11c6.91,2.87,14.75,6.11,19.85,12.53a1,1,0,0,1,.15,1,1,1,0,0,1-.77.63,19.85,19.85,0,0,0-7.43,2.9c8.09,1.43,14.75,3.72,20.29,7,7.55,4.44,13.08,10.83,15.59,18a1,1,0,0,1-1.23,1.29,22,22,0,0,0-10.41-.55c4.3,4.09,9.22,15.93,9.28,16.08.42,1.17,2.08,9,3,13.88,1,5.32,1,5.91-.07,6.17-27.31,6.39-52.94,3-76.22-10.2a95.38,95.38,0,0,1-1.07,11.65,1,1,0,0,1-2-.12c-.91-2.57-21.83-26-29.58-32.53,2.27,6.14,3.91,12,1.63,14.32a1,1,0,0,1-1.18.19c-17.61-9.19-25.64-18.22-29.42-33.57-.6,1.52-1.23,3.17-1.88,4.89-3.6,9.47-8.07,21.26-13.77,26.62-14.35,13.51-23.67,19.64-36.84,26.84A1,1,0,0,1,160.91,351Zm.9-30.13a1,1,0,0,1,.93.63c1.88,4.81,1,11.55.08,18.06a84.65,84.65,0,0,0-.91,8.75c12.26-6.78,21.3-12.87,35-25.73,5.36-5,9.74-16.59,13.27-25.87,1.11-2.92,2.15-5.68,3.11-7.91a1,1,0,0,1,1.9.2c3.27,16.35,10.7,25.57,28.27,34.9.94-2.68-1.83-10-2.8-12.59-.81-2.14-.94-2.47-.41-3a1,1,0,0,1,1.1-.21c3.11,1.24,15.79,14.88,18.3,17.6q9.94,10.77,13.23,15.42c.37-3.06.6-6.39.7-10.26A1,1,0,0,1,275,330c23,13.44,48.35,17.14,75.42,11-.07-.6-.24-1.77-.65-4-1-5.38-2.56-12.67-2.88-13.55-1.54-4.2-7.92-16.15-9.86-16.15h0a1,1,0,0,1-.59-1.91,24,24,0,0,1,12.14-.58,33.53,33.53,0,0,0-14-15.15c-5.86-3.45-13-5.77-21.95-7.12a1,1,0,0,1-.48-1.76,21.93,21.93,0,0,1,8.56-4.34c-4.79-5.22-11.77-8.11-18-10.68L273,253.42a1,1,0,0,1,.2-1.91c1-.19,2-.37,3-.54,7.26-1.26,14.69-2.15,21.87-3l2.61-.31c22.26-2.69,38.27-8.69,50.11-18.83l-17-1.45a1,1,0,0,1-.89-.78,1,1,0,0,1,.49-1.09,120.28,120.28,0,0,0,27.13-20.34,102.42,102.42,0,0,0,19.7-27.37h0c9.81-20.11,11.81-42.66,5.63-62.44a27.54,27.54,0,0,1-16.34,17.55,1,1,0,0,1-1.15-1.54l4-5.36c-4,2.31-8.62,3.76-13.12,5.17-1.28.4-2.55.8-3.79,1.22a96.66,96.66,0,0,0-36.5,22.19,1,1,0,0,1-1.6-1.13,53.52,53.52,0,0,1,12.72-17.63c-11.89,1.79-23.77,7.1-34.55,15.48-12.74,9.87-26.09,22.67-25.38,28.95a1,1,0,1,1-2,.23h0A30.53,30.53,0,0,1,270,166.13,36.13,36.13,0,0,0,258.43,179c-4,7.13-8.71,12.34-13.66,17.85a1,1,0,0,1-1.74-.54c-1.72-13.26,3.36-23.34,8.28-33.09,3.17-6.27,6.42-12.72,7.87-20.06a98.33,98.33,0,0,1-8.7,7.27c-1.14.88-2.12,1.63-2.63,2.07a1,1,0,0,1-1.62-1,95.42,95.42,0,0,0,2.84-37,84.11,84.11,0,0,1-8.46,16.31,1,1,0,0,1-1.83-.59c.45-17.64-.07-43.62-9.81-65.49-.87-1.94-1.82-3.93-2.74-5.85-3.73-7.82-7.57-15.85-7.65-24.25-2.93,5.1-6.26,9.92-9.51,14.61-2.94,4.25-6,8.65-8.67,13.19l-.58,1c-4.41,7.42-16.12,27.12-13.61,35h0a1,1,0,0,1-.65,1.26,1,1,0,0,1-1.26-.65,62.65,62.65,0,0,1-3-19.2A85.52,85.52,0,0,0,170.13,106a87.76,87.76,0,0,0,2.54,50.21,1,1,0,0,1-1.8.85,42.45,42.45,0,0,0-9.66-11.23A116.47,116.47,0,0,0,170,177.55a34.92,34.92,0,0,0,5.89,8.95c.79,1,1.61,2,2.48,3.09a28.75,28.75,0,0,1,2.77,5.5c.65,1.5,1.31,3,2,4.19a.3.3,0,0,1,0,.08,4.87,4.87,0,0,0,1,1.37,1,1,0,0,1,.16,1.41,1,1,0,0,1-1.4.16c-.32-.26-.66-.51-1-.76A39.53,39.53,0,0,0,178,199c-1.85-1.11-3.77-2.11-5.63-3.09-4.2-2.19-8.54-4.46-12.33-7.94l-1.27-1.15a115.24,115.24,0,0,0-12.69-10.59,38.5,38.5,0,0,0-5.35-2.79c-1.24-.57-2.5-1.15-3.67-1.77a19.54,19.54,0,0,1,2,8.32,1,1,0,0,1-1.64.78,92.35,92.35,0,0,0-43-19.58l6.61,5.41a1,1,0,0,1-1,1.71c-19.64-7.6-46.21-17.88-60.83-38.61A139.8,139.8,0,0,0,50.82,178.1a137.14,137.14,0,0,0,18.35,30.34,1,1,0,0,1,0,1.22A1,1,0,0,1,68,210l-13.88-5.56C58.38,216,67.49,223.29,76,229c2.52,1.69,5,3.55,7.49,5.36,7.69,5.69,15.64,11.57,25.17,13.36a71.87,71.87,0,0,0,12.11.83c5.37.06,10.93.13,16.13,1.82.47.15.94.31,1.41.49a1,1,0,0,1-.17,1.92,94.64,94.64,0,0,0-52.62,30.77c5.25-1.15,10.57-2.24,15.85-3.24a1,1,0,0,1,.85,1.73,96.88,96.88,0,0,0-29.52,49.74c-.6,2.54-1.1,5.14-1.49,7.75a251.38,251.38,0,0,1,30.7-6.21,1,1,0,0,1,1,.54,1,1,0,0,1-.15,1.14l-11,11.7,48.29-16.4a77.41,77.41,0,0,0,9.8-4.42c3.88-2,7.9-4,11.69-5A1,1,0,0,1,161.81,320.85Zm110.63,23.06Z"/><path class="cls-4" d="M333.84,226.38,353.18,228c-14.28,13.18-33.55,18.35-52.39,20.62-8.12,1-16.33,1.91-24.44,3.32l-4-.63,45-17.07L301,229.41a232.89,232.89,0,0,0,60.2-23.54A121.94,121.94,0,0,1,333.84,226.38Z"/><circle class="cls-4" cx="169.56" cy="229.89" r="19.6"/><circle class="cls-4" cx="255.88" cy="227.78" r="19.6"/><ellipse class="cls-11" cx="173.62" cy="224.6" rx="14.69" ry="14.74" transform="matrix(0.99, -0.17, 0.17, 0.99, -34.73, 31.78)"/><path class="cls-3" d="M173.62,240.33A15.74,15.74,0,0,1,171,209.07,15.73,15.73,0,0,1,189.09,222h0a15.71,15.71,0,0,1-12.87,18.12A16.37,16.37,0,0,1,173.62,240.33Zm0-29.47a13.75,13.75,0,1,0,13.49,11.47h0a13.71,13.71,0,0,0-13.49-11.47Z"/><path class="cls-3" d="M167.77,211.8a1,1,0,0,1-.47-.12,8.81,8.81,0,0,1-4-6.2,1,1,0,0,1,.82-1.15,1,1,0,0,1,1.15.82,6.84,6.84,0,0,0,3,4.78,1,1,0,0,1,.39,1.35A1,1,0,0,1,167.77,211.8Z"/><path class="cls-3" d="M160,219.13a9,9,0,0,1-6.46-3,1,1,0,1,1,1.47-1.36,6.84,6.84,0,0,0,5.11,2.36,1,1,0,0,1,.16,2Z"/><path class="cls-3" d="M156.15,224.36a9.45,9.45,0,0,1-4.34-1.08,1,1,0,0,1,.92-1.78,6.79,6.79,0,0,0,5.62.48,1,1,0,0,1,.82,1.82A7.66,7.66,0,0,1,156.15,224.36Z"/><path class="cls-3" d="M163.72,214.29l-.23,0c-3.28-.77-5.4-4.65-5.49-4.82a1,1,0,0,1,1.77-.94s1.78,3.25,4.17,3.81a1,1,0,0,1-.22,2Z"/><path class="cls-12" d="M165.85,223.84a.27.27,0,0,1,0,.09,9.17,9.17,0,1,0,18.29-.9,9.91,9.91,0,0,0-.35-2.2,9.28,9.28,0,0,0-9.27-7A9.43,9.43,0,0,0,165.85,223.84Z"/><path class="cls-3" d="M175,234.15A10.46,10.46,0,0,1,164.86,224s0-.06,0-.1h0a10.48,10.48,0,0,1,9.62-11.07,10.2,10.2,0,0,1,10.28,7.75,11,11,0,0,1,.39,2.42,10.43,10.43,0,0,1-9.62,11.16Zm-8.19-10.31V224a8.17,8.17,0,1,0,16.3-.89,9.4,9.4,0,0,0-.32-2,8.23,8.23,0,0,0-8.26-6.29,8.46,8.46,0,0,0-7.72,9Z"/><path class="cls-4" d="M165.85,223.84a37.79,37.79,0,0,0,17.94-3,9.28,9.28,0,0,0-9.27-7A9.43,9.43,0,0,0,165.85,223.84Z"/><path class="cls-3" d="M171.35,223.66a3.67,3.67,0,1,0,3.45-4.16A3.83,3.83,0,0,0,171.35,223.66Z"/><path class="cls-11" d="M165.24,218.3a3.19,3.19,0,1,0,2.85-3.49A3.19,3.19,0,0,0,165.24,218.3Z"/><path class="cls-11" d="M175.61,226.54a1.38,1.38,0,1,0,1.24-1.51A1.38,1.38,0,0,0,175.61,226.54Z"/><ellipse class="cls-11" cx="253.74" cy="222.55" rx="14.74" ry="14.69" transform="translate(9.28 455.26) rotate(-84.84)"/><path class="cls-3" d="M253.76,238.29c-.47,0-.95,0-1.43-.06a15.71,15.71,0,0,1-14.21-17.09h0a15.71,15.71,0,0,1,17-14.26A15.71,15.71,0,0,1,269.37,224a15.71,15.71,0,0,1-15.61,14.33Zm0-29.48a13.73,13.73,0,0,0-13.63,12.51h0a13.7,13.7,0,0,0,12.4,14.91,13.49,13.49,0,0,0,10-3.14A13.73,13.73,0,0,0,255,208.87Q254.36,208.81,253.74,208.81Zm-14.63,12.42h0Z"/><path class="cls-3" d="M258.52,209.35a1,1,0,0,1-.55-1.83,6.92,6.92,0,0,0,2.62-5,1,1,0,0,1,1.08-.9,1,1,0,0,1,.91,1.09,8.8,8.8,0,0,1-3.52,6.48A1,1,0,0,1,258.52,209.35Z"/><path class="cls-3" d="M266.58,216.08h0a1,1,0,0,1-1-1,1,1,0,0,1,1-1,6.86,6.86,0,0,0,4.92-2.75,1,1,0,0,1,1.57,1.24A8.84,8.84,0,0,1,266.58,216.08Z"/><path class="cls-3" d="M270.46,221a7.66,7.66,0,0,1-2.38-.35,1,1,0,0,1,.69-1.88,6.78,6.78,0,0,0,5.56-.91,1,1,0,0,1,1.38.33,1,1,0,0,1-.33,1.37A9.31,9.31,0,0,1,270.46,221Z"/><path class="cls-3" d="M262.75,211.53a1,1,0,0,1-.3-2c2.35-.74,3.86-4.08,3.88-4.12a1,1,0,0,1,1.82.81c-.07.17-1.89,4.21-5.1,5.22A1,1,0,0,1,262.75,211.53Z"/><path class="cls-12" d="M243.37,221.22s0,.06,0,.09a9.17,9.17,0,1,0,18.29-.91,10,10,0,0,0-.36-2.2,9.28,9.28,0,0,0-9.26-7A9.44,9.44,0,0,0,243.37,221.22Z"/><path class="cls-3" d="M252.56,231.53a10.47,10.47,0,0,1-10.18-10.17v-.1h0A10.46,10.46,0,0,1,252,210.19a10.23,10.23,0,0,1,10.28,7.75,11.53,11.53,0,0,1,.39,2.42,10.44,10.44,0,0,1-9.62,11.15Zm-8.19-10.31a.57.57,0,0,1,0,.12,8.17,8.17,0,1,0,16.29-.89,9,9,0,0,0-.32-2,8.23,8.23,0,0,0-8.25-6.28,8.46,8.46,0,0,0-7.73,9Z"/><path class="cls-4" d="M243.37,221.22a37.75,37.75,0,0,0,17.94-3,9.28,9.28,0,0,0-9.26-7A9.44,9.44,0,0,0,243.37,221.22Z"/><path class="cls-3" d="M248.87,221a3.67,3.67,0,1,0,3.46-4.15A3.83,3.83,0,0,0,248.87,221Z"/><path class="cls-11" d="M243.23,216.56a3.19,3.19,0,1,0,2.86-3.49A3.19,3.19,0,0,0,243.23,216.56Z"/><path class="cls-11" d="M253.14,223.92a1.38,1.38,0,1,0,1.23-1.51A1.37,1.37,0,0,0,253.14,223.92Z"/><path class="cls-13" d="M229.4,230.35a34.45,34.45,0,0,1-4.51,12.92,20.15,20.15,0,0,1-1.56,2.14,16.55,16.55,0,0,1-1.35,1.43,13.09,13.09,0,0,1-8.44,3.7A12.41,12.41,0,0,1,205,248l-.2-.14a18.7,18.7,0,0,1-3.58-3.8A35.19,35.19,0,0,1,196.05,232a22.87,22.87,0,0,0,4.55,2.13,29.84,29.84,0,0,0,4.8,1.3A28.37,28.37,0,0,0,221,234.1c1.31-.45,2.53-.93,3.62-1.39A45.25,45.25,0,0,0,229.4,230.35Z"/><path class="cls-3" d="M212.68,251.57a13.36,13.36,0,0,1-8.2-2.78,3.39,3.39,0,0,1-.28-.2,19.73,19.73,0,0,1-3.75-4,36.06,36.06,0,0,1-5.38-12.45,1,1,0,0,1,.42-1,1,1,0,0,1,1.11,0,23.16,23.16,0,0,0,4.34,2,28.86,28.86,0,0,0,4.64,1.26,30.82,30.82,0,0,0,5.37.53,32.08,32.08,0,0,0,9.75-1.79c1.24-.43,2.43-.89,3.53-1.36a42.9,42.9,0,0,0,4.64-2.29,1,1,0,0,1,1,0,1,1,0,0,1,.47.94,35.06,35.06,0,0,1-4.66,13.37,18.91,18.91,0,0,1-1.64,2.24,15.59,15.59,0,0,1-1.42,1.52,14.14,14.14,0,0,1-9.07,4C213.29,251.56,213,251.57,212.68,251.57ZM197.6,233.93a32.76,32.76,0,0,0,4.47,9.5,17.33,17.33,0,0,0,3.39,3.6l.18.13a11.5,11.5,0,0,0,7.84,2.39,12.15,12.15,0,0,0,7.81-3.44,13.35,13.35,0,0,0,1.27-1.34,17.26,17.26,0,0,0,1.48-2,32.53,32.53,0,0,0,4-10.53c-.82.41-1.86.91-3,1.42s-2.38,1-3.68,1.42a33.3,33.3,0,0,1-10.4,1.89,33.69,33.69,0,0,1-5.72-.56,31.54,31.54,0,0,1-5-1.35A27.9,27.9,0,0,1,197.6,233.93Z"/><path class="cls-14" d="M223.33,245.41a16.55,16.55,0,0,1-1.35,1.43,13.09,13.09,0,0,1-8.44,3.7A12.41,12.41,0,0,1,205,248l-.2-.14a18.7,18.7,0,0,1-3.58-3.8C206.82,241.38,215,239.61,223.33,245.41Z"/><path class="cls-3" d="M212.68,251.57a13.36,13.36,0,0,1-8.2-2.78,3.39,3.39,0,0,1-.28-.2,19.73,19.73,0,0,1-3.75-4,1,1,0,0,1-.16-.84,1,1,0,0,1,.54-.65c5.7-2.7,14.33-4.64,23.07,1.47a1,1,0,0,1,.42.68,1,1,0,0,1-.22.77,15.89,15.89,0,0,1-1.43,1.53,14.14,14.14,0,0,1-9.07,4C213.29,251.56,213,251.57,212.68,251.57Zm-9.86-7.15a16.64,16.64,0,0,0,2.64,2.61l.18.13a11.5,11.5,0,0,0,7.84,2.39,12.15,12.15,0,0,0,7.81-3.44,6.26,6.26,0,0,0,.52-.51C214.74,241.16,207.79,242.33,202.82,244.42Z"/><path class="cls-3" d="M212.73,209.35h0a1,1,0,0,1-1-1c0-.12,0-12.8-2.29-55.93-2.29-43.31,3.68-76.77,3.74-77.1a1,1,0,1,1,2,.35c0,.34-6,33.58-3.7,76.64,2.28,43.22,2.29,55.92,2.29,56A1,1,0,0,1,212.73,209.35Z"/><path class="cls-3" d="M288.18,217a1,1,0,0,1-.54-1.84c.42-.27,42.37-27.17,62.59-43.07,19.91-15.66,23.35-26,23.38-26.08a1,1,0,0,1,1.91.59c-.13.44-3.55,10.94-24,27.06-20.3,16-62.33,42.91-62.75,43.18A1,1,0,0,1,288.18,217Z"/><path class="cls-3" d="M324,328.46a1,1,0,0,1-.47-.12c-43.07-23.11-87.55-65.23-88-65.65a1,1,0,0,1,1.38-1.45c.45.42,44.73,42.35,87.56,65.34a1,1,0,0,1-.47,1.88Z"/><path class="cls-3" d="M100.57,316.32a1,1,0,0,1-.74-.32,1,1,0,0,1,.07-1.42c21.76-19.84,83.19-51.15,83.8-51.46a1,1,0,1,1,.91,1.78c-.62.31-61.8,31.5-83.37,51.16A1,1,0,0,1,100.57,316.32Z"/><path class="cls-3" d="M134.09,217.78a1,1,0,0,1-.28,0c-.5-.15-50.29-15.17-77.89-53.84a1,1,0,0,1,1.62-1.16c27.2,38.09,76.34,52.94,76.84,53.08a1,1,0,0,1-.29,2Z"/><path class="cls-3" d="M212.73,196.78a1,1,0,0,1-.59-.19l-23.56-17a1,1,0,1,1,1.17-1.62l22.9,16.48,18-16.41a1,1,0,0,1,1.41.06,1,1,0,0,1-.06,1.42l-18.59,17A1,1,0,0,1,212.73,196.78Z"/><path class="cls-3" d="M211.53,175.32a1,1,0,0,1-.73-.32l-22.37-23.86a1,1,0,0,1,1.46-1.37l21.53,23,17.16-24.32a1,1,0,0,1,1.39-.24,1,1,0,0,1,.24,1.39l-17.86,25.32a1,1,0,0,1-.75.42Z"/><path class="cls-3" d="M209.91,142.92a1,1,0,0,1-.77-.36l-13.86-16.72a1,1,0,0,1,.13-1.41,1,1,0,0,1,1.41.13l13,15.72,14.07-19.81a1,1,0,0,1,1.4-.24,1,1,0,0,1,.23,1.39L210.72,142.5a1,1,0,0,1-.77.42Z"/><path class="cls-3" d="M209.91,112h-.13a1,1,0,0,1-.82-.68c-2.49-7.81-6.67-21.07-6.67-22.11a1,1,0,0,1,1-1,1,1,0,0,1,1,1c.14,1.08,3.48,11.8,5.93,19.53l10.57-16.23a1,1,0,1,1,1.67,1.1l-11.71,18A1,1,0,0,1,209.91,112Zm-5.62-22.8h0Z"/><path class="cls-3" d="M354.11,171.18a1,1,0,0,1-.54-.15c-.76-.48-1-.63,3.06-16.67a1,1,0,0,1,1.22-.72,1,1,0,0,1,.72,1.21c-1.37,5.43-2.81,11.46-3.31,14,1.91-.38,6-1,15-2.12a1,1,0,1,1,.25,2c-7,.85-14.88,1.94-15.89,2.3A1.09,1.09,0,0,1,354.11,171.18Zm.67-.23Zm0,0Z"/><path class="cls-3" d="M360.37,184.55h-24a1,1,0,0,1-.83-.44,1,1,0,0,1-.09-.94l8.39-20.23a1,1,0,1,1,1.84.77l-7.81,18.84h22.46a1,1,0,0,1,0,2Z"/><path class="cls-3" d="M342,201.63h-.12l-25.68-3.22a1,1,0,0,1-.77-.55,1,1,0,0,1,0-.94l12.18-21a1,1,0,0,1,1.73,1L318,196.6l24.18,3a1,1,0,0,1-.13,2Z"/><path class="cls-3" d="M326.81,219a1.07,1.07,0,0,1-.25,0l-29.86-7.7a1,1,0,0,1-.62-.48A1,1,0,0,1,296,210l9.45-31.45a1,1,0,0,1,1.24-.67,1,1,0,0,1,.67,1.25l-9.14,30.45L327.06,217a1,1,0,0,1-.25,2Z"/><path class="cls-3" d="M246.4,290.67a1,1,0,0,1-1-1V271.19a1,1,0,0,1,.87-1c26.5-3.54,26.55-3.42,26.94-2.49a1,1,0,0,1-.54,1.31,1,1,0,0,1-.61.05h0c-1.59,0-15.51,1.78-24.66,3v17.61A1,1,0,0,1,246.4,290.67Zm25-22.17a1.09,1.09,0,0,0,.08.15A1.09,1.09,0,0,1,271.37,268.5Zm0,0h0Zm0,0Zm0,0Zm0,0Z"/><path class="cls-3" d="M269.43,310.27a1,1,0,0,1-1-.89l-2.19-19.6a1,1,0,0,1,.75-1.08c4.66-1.18,20-5,21.18-5a1,1,0,0,1,0,2c-1.05.08-12.38,2.85-19.86,4.72l2.1,18.74a1,1,0,0,1-.88,1.1Z"/><path class="cls-3" d="M294.28,322a1,1,0,0,1-.95-.69l-5-15.54a1,1,0,0,1,.7-1.27L306.14,300a1,1,0,0,1,.51,1.93l-16.06,4.27,4.65,14.53a1,1,0,0,1-.65,1.26A1.06,1.06,0,0,1,294.28,322Z"/><path class="cls-3" d="M312.71,332.07a1,1,0,0,1-.95-.72L308.11,319a1,1,0,0,1,.53-1.18l7.29-3.44a1,1,0,1,1,.85,1.81l-6.51,3.07,3.4,11.48A1,1,0,0,1,313,332,1,1,0,0,1,312.71,332.07Z"/><path class="cls-3" d="M123.21,313.73a1,1,0,0,1-1-1V299.54L109.74,298a1,1,0,1,1,.25-2l13.34,1.67a1,1,0,0,1,.88,1v14.07A1,1,0,0,1,123.21,313.73Z"/><path class="cls-3" d="M137.07,308.89l-.24,0a1,1,0,0,1-.73-1.22l5-19.83-24.66-2.11a1,1,0,0,1-.91-1.08,1,1,0,0,1,1.08-.91l25.83,2.21a1,1,0,0,1,.88,1.24l-5.29,21A1,1,0,0,1,137.07,308.89Z"/><path class="cls-3" d="M158.89,302l-.2,0a1,1,0,0,1-.78-1.18l5.19-25.46-29.22-6.26a1,1,0,0,1,.42-2l30.19,6.48a1,1,0,0,1,.77,1.17l-5.39,26.43A1,1,0,0,1,158.89,302Z"/><path class="cls-3" d="M100.57,224.48a1,1,0,0,1,0-2c1.46-.17,15.23-5.68,24.07-9.32l-2.39-23a1,1,0,0,1,2-.21l2.46,23.75a1,1,0,0,1-.61,1c-5.54,2.28-23.74,9.73-25.48,9.75Z"/><path class="cls-3" d="M85.64,209.19a1,1,0,0,1-.12-2l20.8-2.58-2.63-18.38a1,1,0,0,1,.84-1.14,1,1,0,0,1,1.14.85l2.77,19.39a1,1,0,0,1-.2.75,1,1,0,0,1-.67.39l-21.8,2.7Z"/><path class="cls-3" d="M83,191h0l-11.92-.1a1,1,0,0,1-1-1,1,1,0,0,1,1-1h0l11.13.1,2.42-10.43a1,1,0,1,1,2,.45L84,190.26A1,1,0,0,1,83,191Z"/><path class="cls-4" d="M206.94,262c.65,3.08,16.47,7.25,14.68,0S206.3,258.89,206.94,262Z"/><path class="cls-4" d="M351.47,341.8c-31.39,7.34-56.93.77-76.94-10.93a102.47,102.47,0,0,1-1.1,13.2c.33-2.14-28.33-33.39-32.51-35.06-.52-.21,5.87,13.07,2.84,16.18-17.21-9-26-18-29.6-36-4,9.29-9.35,27.29-16.61,34.12-13.71,12.9-22.78,19.12-36.64,26.69-.29-8.13,3.75-20.82.9-28.13-6.79,1.74-14.24,6.95-21.42,9.38L88.32,348.91,102,334.29a248,248,0,0,0-32,6.59c.42-3.14,1-6.27,1.72-9.35A153.54,153.54,0,0,0,120,322c-1.38,2.16-2.75,4.33-4.13,6.48,12.07-3.13,24.27-6.3,35.3-12.12s21-14.6,25.72-26.12a55.48,55.48,0,0,1,0,26.77,185.55,185.55,0,0,1,40.66-41.46,34.49,34.49,0,0,0,13.36,25.36,11.87,11.87,0,0,1,2.76-5.88q20,13.81,38.65,29.6c.55-1.48,1.08-3,1.61-4.43,22.24,15.13,50.45,20.88,77,16.57C351.3,339.61,351.63,341.76,351.47,341.8Z"/><path class="cls-4" d="M142.19,248.17a9.92,9.92,0,0,1-5.64,3.13c-8.91-2.9-18.83-.88-28.12-2.62-12.84-2.41-22.66-11.92-33-18.87S56.22,214.9,52.5,202.7l15.89,6.37A138.79,138.79,0,0,1,49.9,178.5a463.37,463.37,0,0,0,34.67,42.3,11.84,11.84,0,0,0-10.35-.49c9.06,8.71,22.56,10.29,35,12.14S135.28,237.67,142.19,248.17Z"/><path class="cls-4" d="M182.21,199.77c-1.56-2.77-3.12-7.58-4.64-9.57-3.33-4.33-6.12-6.83-8.49-12.25a117.71,117.71,0,0,1-9.15-34.34,43.28,43.28,0,0,1,11.8,13,88.46,88.46,0,0,1-2.57-50.79c2.44,22,8.74,43.92,15.83,65a24.46,24.46,0,0,1-12.22-1.73Q177.49,184.42,182.21,199.77Z"/><path class="cls-4" d="M182.51,200.74l.73,2.36-4.76-5A44.46,44.46,0,0,1,182.51,200.74Z"/><path class="cls-4" d="M139.23,192.49c-2.42,7.25,10.58,11.94,13,3.29S141.2,186.57,139.23,192.49Z"/><path class="cls-4" d="M180,133.36c-1.15,3.47,5.08,5.72,6.26,1.58S180.91,130.52,180,133.36Z"/><path class="cls-4" d="M228.18,104.82c-1.15,3.47,5.08,5.72,6.26,1.58S229.13,102,228.18,104.82Z"/><path class="cls-4" d="M279.65,174.05c-8.06,4.16-.9,18.93,8.37,13.62S286.24,170.65,279.65,174.05Z"/><path class="cls-4" d="M319.49,293.66c-5.59,2.88-.63,13.11,5.79,9.43S324.05,291.3,319.49,293.66Z"/><path class="cls-4" d="M185,274c-8.06,4.16-.9,18.94,8.37,13.62S191.55,270.62,185,274Z"/><path class="cls-4" d="M288.47,164.18c-2.41,7.24,10.58,11.94,13,3.29S290.45,158.26,288.47,164.18Z"/><path class="cls-4" d="M324.78,318.38c-1.88,5.66,8.27,9.33,10.2,2.57S326.33,313.75,324.78,318.38Z"/><path class="cls-4" d="M289.82,276c-1.29,3.87,5.65,6.38,7,1.76S290.88,272.79,289.82,276Z"/><path class="cls-4" d="M89.7,300.87c-1.9,5.7,8.32,9.39,10.26,2.59S91.25,296.22,89.7,300.87Z"/><path class="cls-4" d="M283.49,235.56c-1.49,4.46,6.52,7.35,8,2S284.71,231.91,283.49,235.56Z"/><path class="cls-4" d="M113.31,270.48c-1.49,4.46,6.51,7.35,8,2S114.52,266.84,113.31,270.48Z"/><path class="cls-4" d="M71,168.94c-1.48,4.46,6.52,7.35,8,2S72.22,165.3,71,168.94Z"/><path class="cls-4" d="M353,140.68c-1.49,4.46,6.51,7.35,8,2S354.18,137,353,140.68Z"/><path class="cls-4" d="M120,225.14c-1.21,4.52,5.29,7.45,6.52,2.05S120.94,221.44,120,225.14Z"/><path class="cls-4" d="M103.26,237.78c-1.78,3.43,7.82,5.65,9.64,1.55S104.72,235,103.26,237.78Z"/><path class="cls-4" d="M238.14,165.4c2.13,3.23,8.74-4.08,6.05-7.66S236.4,162.76,238.14,165.4Z"/><path class="cls-4" d="M180.74,120.78c5.47.44,6.35-9.69-.1-9.93S176.26,120.41,180.74,120.78Z"/><path class="cls-3" d="M209.39,390.82a1,1,0,0,1-1-1V341.08a1,1,0,0,1,2,0v48.74A1,1,0,0,1,209.39,390.82Z"/><path class="cls-3" d="M219.78,358.47a1,1,0,0,1-1-1l-1.29-24a1,1,0,0,1,2-.11l1.29,24a1,1,0,0,1-.94,1.06Z"/><path class="cls-3" d="M221.06,378.54a1,1,0,0,1-1-.94l-.8-11.49a1,1,0,0,1,.93-1.07,1,1,0,0,1,1.07.93l.8,11.5a1,1,0,0,1-.93,1.06Z"/><path class="cls-3" d="M227.56,355.64a1,1,0,0,1-1-.89l-.9-8.5a1,1,0,0,1,2-.21l.9,8.5a1,1,0,0,1-.89,1.09Z"/><path class="cls-3" d="M231,389.16a1,1,0,0,1-1-.89l-1.61-14.49a1,1,0,1,1,2-.22L232,388.05a1,1,0,0,1-.88,1.11Z"/><circle class="cls-11" cx="89.81" cy="126.82" r="6.79"/><path class="cls-3" d="M89.81,134.62a1,1,0,0,1-1-1,5.8,5.8,0,0,0-5.79-5.8,1,1,0,1,1,0-2A5.8,5.8,0,0,0,88.81,120a1,1,0,0,1,2,0,5.8,5.8,0,0,0,5.8,5.79,1,1,0,1,1,0,2,5.8,5.8,0,0,0-5.8,5.8A1,1,0,0,1,89.81,134.62Zm-3-7.8a7.87,7.87,0,0,1,3,3,8,8,0,0,1,3-3,7.94,7.94,0,0,1-3-3A7.84,7.84,0,0,1,86.84,126.82Z"/><circle class="cls-11" cx="357.9" cy="257.04" r="6.79"/><path class="cls-3" d="M357.9,264.84a1,1,0,0,1-1-1,5.8,5.8,0,0,0-5.8-5.8,1,1,0,0,1,0-2,5.8,5.8,0,0,0,5.8-5.79,1,1,0,0,1,2,0,5.79,5.79,0,0,0,5.79,5.79,1,1,0,0,1,0,2,5.8,5.8,0,0,0-5.79,5.8A1,1,0,0,1,357.9,264.84Zm-3-7.8a7.9,7.9,0,0,1,3,3,7.8,7.8,0,0,1,3-3,7.8,7.8,0,0,1-3-3A7.9,7.9,0,0,1,354.92,257Z"/><circle class="cls-11" cx="38.02" cy="266.8" r="6.79"/><path class="cls-3" d="M38,274.6a1,1,0,0,1-1-1,5.8,5.8,0,0,0-5.79-5.8,1,1,0,0,1,0-2A5.79,5.79,0,0,0,37,260a1,1,0,0,1,2,0,5.79,5.79,0,0,0,5.79,5.79,1,1,0,0,1,0,2A5.8,5.8,0,0,0,39,273.6,1,1,0,0,1,38,274.6Zm-3-7.8a7.9,7.9,0,0,1,3,3,7.9,7.9,0,0,1,3-3,7.8,7.8,0,0,1-3-3A7.8,7.8,0,0,1,35,266.8Z"/><circle class="cls-11" cx="126.04" cy="80.1" r="10.86"/><path class="cls-3" d="M126,92a1,1,0,0,1-1-1,9.87,9.87,0,0,0-9.86-9.86,1,1,0,0,1,0-2A9.87,9.87,0,0,0,125,69.24a1,1,0,0,1,2,0,9.88,9.88,0,0,0,9.87,9.86,1,1,0,0,1,0,2A9.88,9.88,0,0,0,127,91,1,1,0,0,1,126,92ZM120,80.1A11.92,11.92,0,0,1,126,86.2a12,12,0,0,1,6.1-6.1A12,12,0,0,1,126,74,11.92,11.92,0,0,1,120,80.1Z"/><circle class="cls-11" cx="392.44" cy="226.19" r="10.86"/><path class="cls-3" d="M392.44,238.05a1,1,0,0,1-1-1,9.87,9.87,0,0,0-9.86-9.86,1,1,0,0,1,0-2,9.88,9.88,0,0,0,9.86-9.86,1,1,0,1,1,2,0,9.87,9.87,0,0,0,9.86,9.86,1,1,0,0,1,0,2,9.87,9.87,0,0,0-9.86,9.86A1,1,0,0,1,392.44,238.05Zm-6.1-11.86a11.94,11.94,0,0,1,6.1,6.1,11.92,11.92,0,0,1,6.09-6.1,11.92,11.92,0,0,1-6.09-6.1A11.94,11.94,0,0,1,386.34,226.19Z"/><circle class="cls-11" cx="272.4" cy="26.65" r="10.86"/><path class="cls-3" d="M272.4,38.51a1,1,0,0,1-1-1,9.88,9.88,0,0,0-9.86-9.86,1,1,0,0,1,0-2,9.87,9.87,0,0,0,9.86-9.86,1,1,0,0,1,2,0,9.87,9.87,0,0,0,9.86,9.86,1,1,0,0,1,0,2,9.87,9.87,0,0,0-9.86,9.86A1,1,0,0,1,272.4,38.51Zm-6.1-11.86a11.94,11.94,0,0,1,6.1,6.1,11.92,11.92,0,0,1,6.09-6.1,11.89,11.89,0,0,1-6.09-6.1A11.91,11.91,0,0,1,266.3,26.65Z"/></g></g></g></svg>